<svg xmlns="http://www.w3.org/2000/svg" xmlns:xlink="http://www.w3.org/1999/xlink" width="175" zoomAndPan="magnify" viewBox="0 0 131.25 30.000001" height="40" preserveAspectRatio="xMidYMid meet" version="1.0"><defs><g/></defs><g fill="#523528" fill-opacity="1"><g transform="translate(1.75403, 19.98705)"><g><path d="M 0.78125 -6.40625 C 0.78125 -7.644531 1.0625 -8.765625 1.625 -9.765625 C 2.1875 -10.765625 2.953125 -11.546875 3.921875 -12.109375 C 4.898438 -12.671875 5.984375 -12.953125 7.171875 -12.953125 C 8.566406 -12.953125 9.78125 -12.613281 10.8125 -11.9375 C 11.851562 -11.269531 12.613281 -10.316406 13.09375 -9.078125 L 11.09375 -9.078125 C 10.738281 -9.847656 10.226562 -10.441406 9.5625 -10.859375 C 8.894531 -11.273438 8.097656 -11.484375 7.171875 -11.484375 C 6.273438 -11.484375 5.472656 -11.273438 4.765625 -10.859375 C 4.054688 -10.441406 3.5 -9.847656 3.09375 -9.078125 C 2.695312 -8.316406 2.5 -7.425781 2.5 -6.40625 C 2.5 -5.382812 2.695312 -4.492188 3.09375 -3.734375 C 3.5 -2.972656 4.054688 -2.382812 4.765625 -1.96875 C 5.472656 -1.550781 6.273438 -1.34375 7.171875 -1.34375 C 8.097656 -1.34375 8.894531 -1.546875 9.5625 -1.953125 C 10.226562 -2.359375 10.738281 -2.945312 11.09375 -3.71875 L 13.09375 -3.71875 C 12.613281 -2.5 11.851562 -1.554688 10.8125 -0.890625 C 9.78125 -0.222656 8.566406 0.109375 7.171875 0.109375 C 5.984375 0.109375 4.898438 -0.164062 3.921875 -0.71875 C 2.953125 -1.28125 2.1875 -2.054688 1.625 -3.046875 C 1.0625 -4.035156 0.78125 -5.15625 0.78125 -6.40625 Z M 0.78125 -6.40625 "/></g></g></g><g fill="#523528" fill-opacity="1"><g transform="translate(15.914999, 19.98705)"><g><path d="M 7.203125 0.125 C 6.023438 0.125 4.945312 -0.148438 3.96875 -0.703125 C 2.988281 -1.265625 2.210938 -2.039062 1.640625 -3.03125 C 1.066406 -4.03125 0.78125 -5.15625 0.78125 -6.40625 C 0.78125 -7.644531 1.066406 -8.765625 1.640625 -9.765625 C 2.210938 -10.765625 2.988281 -11.539062 3.96875 -12.09375 C 4.945312 -12.65625 6.023438 -12.9375 7.203125 -12.9375 C 8.398438 -12.9375 9.488281 -12.65625 10.46875 -12.09375 C 11.445312 -11.539062 12.21875 -10.769531 12.78125 -9.78125 C 13.34375 -8.789062 13.625 -7.664062 13.625 -6.40625 C 13.625 -5.144531 13.34375 -4.019531 12.78125 -3.03125 C 12.21875 -2.039062 11.445312 -1.265625 10.46875 -0.703125 C 9.488281 -0.148438 8.398438 0.125 7.203125 0.125 Z M 7.203125 -1.328125 C 8.097656 -1.328125 8.898438 -1.53125 9.609375 -1.9375 C 10.328125 -2.351562 10.890625 -2.945312 11.296875 -3.71875 C 11.710938 -4.488281 11.921875 -5.382812 11.921875 -6.40625 C 11.921875 -7.425781 11.710938 -8.316406 11.296875 -9.078125 C 10.890625 -9.847656 10.332031 -10.441406 9.625 -10.859375 C 8.914062 -11.273438 8.109375 -11.484375 7.203125 -11.484375 C 6.304688 -11.484375 5.5 -11.273438 4.78125 -10.859375 C 4.070312 -10.441406 3.515625 -9.847656 3.109375 -9.078125 C 2.703125 -8.316406 2.5 -7.425781 2.5 -6.40625 C 2.5 -5.382812 2.703125 -4.488281 3.109375 -3.71875 C 3.515625 -2.945312 4.078125 -2.351562 4.796875 -1.9375 C 5.515625 -1.53125 6.316406 -1.328125 7.203125 -1.328125 Z M 7.203125 -1.328125 "/></g></g></g><g fill="#523528" fill-opacity="1"><g transform="translate(30.332769, 19.98705)"><g><path d="M 3.078125 -1.359375 L 7.5625 -1.359375 L 7.5625 0 L 1.40625 0 L 1.40625 -12.78125 L 3.078125 -12.78125 Z M 3.078125 -1.359375 "/></g></g></g><g fill="#523528" fill-opacity="1"><g transform="translate(38.257043, 19.98705)"><g><path d="M 7.203125 0.125 C 6.023438 0.125 4.945312 -0.148438 3.96875 -0.703125 C 2.988281 -1.265625 2.210938 -2.039062 1.640625 -3.03125 C 1.066406 -4.03125 0.78125 -5.15625 0.78125 -6.40625 C 0.78125 -7.644531 1.066406 -8.765625 1.640625 -9.765625 C 2.210938 -10.765625 2.988281 -11.539062 3.96875 -12.09375 C 4.945312 -12.65625 6.023438 -12.9375 7.203125 -12.9375 C 8.398438 -12.9375 9.488281 -12.65625 10.46875 -12.09375 C 11.445312 -11.539062 12.21875 -10.769531 12.78125 -9.78125 C 13.34375 -8.789062 13.625 -7.664062 13.625 -6.40625 C 13.625 -5.144531 13.34375 -4.019531 12.78125 -3.03125 C 12.21875 -2.039062 11.445312 -1.265625 10.46875 -0.703125 C 9.488281 -0.148438 8.398438 0.125 7.203125 0.125 Z M 7.203125 -1.328125 C 8.097656 -1.328125 8.898438 -1.53125 9.609375 -1.9375 C 10.328125 -2.351562 10.890625 -2.945312 11.296875 -3.71875 C 11.710938 -4.488281 11.921875 -5.382812 11.921875 -6.40625 C 11.921875 -7.425781 11.710938 -8.316406 11.296875 -9.078125 C 10.890625 -9.847656 10.332031 -10.441406 9.625 -10.859375 C 8.914062 -11.273438 8.109375 -11.484375 7.203125 -11.484375 C 6.304688 -11.484375 5.5 -11.273438 4.78125 -10.859375 C 4.070312 -10.441406 3.515625 -9.847656 3.109375 -9.078125 C 2.703125 -8.316406 2.5 -7.425781 2.5 -6.40625 C 2.5 -5.382812 2.703125 -4.488281 3.109375 -3.71875 C 3.515625 -2.945312 4.078125 -2.351562 4.796875 -1.9375 C 5.515625 -1.53125 6.316406 -1.328125 7.203125 -1.328125 Z M 7.203125 -1.328125 "/></g></g></g><g fill="#523528" fill-opacity="1"><g transform="translate(52.674814, 19.98705)"><g><path d="M 8.140625 0 L 5.09375 -5.234375 L 3.078125 -5.234375 L 3.078125 0 L 1.40625 0 L 1.40625 -12.78125 L 5.546875 -12.78125 C 6.503906 -12.78125 7.316406 -12.613281 7.984375 -12.28125 C 8.648438 -11.957031 9.148438 -11.515625 9.484375 -10.953125 C 9.816406 -10.390625 9.984375 -9.75 9.984375 -9.03125 C 9.984375 -8.144531 9.726562 -7.363281 9.21875 -6.6875 C 8.707031 -6.019531 7.945312 -5.578125 6.9375 -5.359375 L 10.140625 0 Z M 3.078125 -6.5625 L 5.546875 -6.5625 C 6.441406 -6.5625 7.113281 -6.785156 7.5625 -7.234375 C 8.019531 -7.679688 8.25 -8.28125 8.25 -9.03125 C 8.25 -9.78125 8.023438 -10.363281 7.578125 -10.78125 C 7.140625 -11.195312 6.460938 -11.40625 5.546875 -11.40625 L 3.078125 -11.40625 Z M 3.078125 -6.5625 "/></g></g></g><g fill="#523528" fill-opacity="1"><g transform="translate(63.827492, 19.98705)"><g><path d="M 14.375 -12.6875 L 14.375 0 L 12.71875 0 L 12.71875 -9.46875 L 8.5 0 L 7.3125 0 L 3.078125 -9.484375 L 3.078125 0 L 1.40625 0 L 1.40625 -12.6875 L 3.203125 -12.6875 L 7.90625 -2.203125 L 12.609375 -12.6875 Z M 14.375 -12.6875 "/></g></g></g><g fill="#523528" fill-opacity="1"><g transform="translate(79.621005, 19.98705)"><g><path d="M 8.96875 -2.84375 L 3.390625 -2.84375 L 2.359375 0 L 0.609375 0 L 5.234375 -12.71875 L 7.15625 -12.71875 L 11.765625 0 L 10 0 Z M 8.5 -4.203125 L 6.1875 -10.65625 L 3.875 -4.203125 Z M 8.5 -4.203125 "/></g></g></g><g fill="#523528" fill-opacity="1"><g transform="translate(91.984337, 19.98705)"><g><path d="M 9.28125 -12.78125 L 9.28125 -11.421875 L 5.796875 -11.421875 L 5.796875 0 L 4.125 0 L 4.125 -11.421875 L 0.625 -11.421875 L 0.625 -12.78125 Z M 9.28125 -12.78125 "/></g></g></g><g fill="#523528" fill-opacity="1"><g transform="translate(101.908018, 19.98705)"><g><path d="M 0.78125 -6.40625 C 0.78125 -7.644531 1.0625 -8.765625 1.625 -9.765625 C 2.1875 -10.765625 2.953125 -11.546875 3.921875 -12.109375 C 4.898438 -12.671875 5.984375 -12.953125 7.171875 -12.953125 C 8.566406 -12.953125 9.78125 -12.613281 10.8125 -11.9375 C 11.851562 -11.269531 12.613281 -10.316406 13.09375 -9.078125 L 11.09375 -9.078125 C 10.738281 -9.847656 10.226562 -10.441406 9.5625 -10.859375 C 8.894531 -11.273438 8.097656 -11.484375 7.171875 -11.484375 C 6.273438 -11.484375 5.472656 -11.273438 4.765625 -10.859375 C 4.054688 -10.441406 3.5 -9.847656 3.09375 -9.078125 C 2.695312 -8.316406 2.5 -7.425781 2.5 -6.40625 C 2.5 -5.382812 2.695312 -4.492188 3.09375 -3.734375 C 3.5 -2.972656 4.054688 -2.382812 4.765625 -1.96875 C 5.472656 -1.550781 6.273438 -1.34375 7.171875 -1.34375 C 8.097656 -1.34375 8.894531 -1.546875 9.5625 -1.953125 C 10.226562 -2.359375 10.738281 -2.945312 11.09375 -3.71875 L 13.09375 -3.71875 C 12.613281 -2.5 11.851562 -1.554688 10.8125 -0.890625 C 9.78125 -0.222656 8.566406 0.109375 7.171875 0.109375 C 5.984375 0.109375 4.898438 -0.164062 3.921875 -0.71875 C 2.953125 -1.28125 2.1875 -2.054688 1.625 -3.046875 C 1.0625 -4.035156 0.78125 -5.15625 0.78125 -6.40625 Z M 0.78125 -6.40625 "/></g></g></g><g fill="#523528" fill-opacity="1"><g transform="translate(116.068987, 19.98705)"><g><path d="M 11.265625 -12.78125 L 11.265625 0 L 9.59375 0 L 9.59375 -5.796875 L 3.078125 -5.796875 L 3.078125 0 L 1.40625 0 L 1.40625 -12.78125 L 3.078125 -12.78125 L 3.078125 -7.171875 L 9.59375 -7.171875 L 9.59375 -12.78125 Z M 11.265625 -12.78125 "/></g></g></g></svg>